<svg width="1017" height="318" viewBox="0 0 1017 318" fill="none" xmlns="http://www.w3.org/2000/svg">
<g filter="url(#filter0_d_0_1)">
<path d="M949.676 273.907C937.66 273.907 926.947 271.283 917.538 266.036C908.13 260.674 900.818 253.26 895.603 243.792C890.389 234.324 887.782 223.545 887.782 211.453C887.782 199.362 890.389 188.582 895.603 179.114C900.818 169.647 908.13 162.289 917.538 157.042C926.947 151.681 937.66 149 949.676 149C961.692 149 972.404 151.681 981.813 157.042C991.221 162.289 998.533 169.647 1003.75 179.114C1008.96 188.582 1011.57 199.362 1011.57 211.453C1011.57 223.545 1008.96 234.324 1003.75 243.792C998.533 253.26 991.221 260.674 981.813 266.036C972.404 271.283 961.692 273.907 949.676 273.907ZM949.676 248.925C955.57 248.925 960.785 247.385 965.319 244.305C969.853 241.111 973.368 236.72 975.861 231.13C978.355 225.427 979.602 218.868 979.602 211.453C979.602 204.039 978.355 197.537 975.861 191.947C973.368 186.244 969.853 181.852 965.319 178.772C960.785 175.578 955.57 173.981 949.676 173.981C943.781 173.981 938.566 175.578 934.032 178.772C929.498 181.852 925.984 186.244 923.49 191.947C920.996 197.537 919.749 204.039 919.749 211.453C919.749 218.868 920.996 225.427 923.49 231.13C925.984 236.72 929.498 241.111 934.032 244.305C938.566 247.385 943.781 248.925 949.676 248.925Z" fill="#F0E6D2"/>
<path d="M830.088 269.629C830.655 260.96 830.939 251.834 830.939 242.252V173.468C829.465 173.468 827.028 173.867 823.627 174.666C820.226 175.35 817.222 176.035 814.615 176.719L813.935 175.692L817.846 151.567H862.566V153.278C861.886 162.631 861.545 171.757 861.545 180.654V249.439C863.019 249.439 865.456 249.039 868.857 248.241C872.258 247.442 875.262 246.758 877.869 246.188L878.549 247.214L874.638 271.34H830.088V269.629Z" fill="#F0E6D2"/>
<path d="M673.042 293.755L680.013 242.937L681.034 242.423C683.981 243.336 686.078 243.963 687.325 244.305C688.345 244.534 689.365 244.819 690.386 245.161C691.519 245.503 692.71 245.845 693.956 246.188C696.904 236.035 699.171 225.94 700.758 215.902C702.458 205.864 703.308 196.966 703.308 189.21C703.308 187.841 703.308 186.415 703.308 184.932C703.308 183.449 703.308 181.966 703.308 180.483V173.468C700.361 173.81 696.054 174.723 690.386 176.206C689.932 176.32 689.479 176.434 689.025 176.548C688.685 176.548 688.345 176.605 688.005 176.719L687.325 175.692L691.236 151.567H793.089V153.278C792.862 156.015 792.692 158.639 792.578 161.148C792.465 163.544 792.352 165.825 792.238 167.993C792.125 170.046 792.068 172.156 792.068 174.323C792.068 176.377 792.068 178.487 792.068 180.654V230.788C792.068 233.526 792.068 236.32 792.068 239.172C792.068 242.024 792.068 244.819 792.068 247.556H792.578L794.959 247.214L807.712 245.845L809.752 295.124L784.247 297.861L782.206 287.424C781.526 283.317 780.392 280.066 778.805 277.671C777.218 275.389 775.121 273.735 772.514 272.709C770.02 271.796 766.846 271.34 762.992 271.34H721.333C717.025 271.34 713.568 271.739 710.96 272.538C708.466 273.336 706.426 274.648 704.839 276.473C703.252 278.412 701.778 281.15 700.418 284.686L695.487 297.861L673.042 293.755ZM761.802 246.53V177.403H732.215L731.875 180.825C730.741 193.031 729.154 204.438 727.114 215.046C725.187 225.655 722.75 236.149 719.802 246.53C721.276 246.53 722.75 246.53 724.223 246.53C725.697 246.53 727.171 246.53 728.644 246.53H761.802Z" fill="#F0E6D2"/>
<path d="M552.212 269.629C553.573 266.435 554.876 263.412 556.123 260.56C557.37 257.594 558.617 254.8 559.864 252.176C562.245 246.815 564.568 241.397 566.836 235.921C569.103 230.446 571.427 224.571 573.807 218.297L591.491 173.81C588.884 173.696 586.22 173.639 583.499 173.639C580.779 173.639 578.001 173.639 575.168 173.639C574.714 173.639 574.204 173.639 573.637 173.639C573.184 173.639 572.73 173.639 572.277 173.639L579.759 150.369C586.9 150.939 595.119 151.281 604.414 151.395C613.823 151.509 621.588 151.566 627.709 151.566H636.551C639.839 162.973 643.636 174.38 647.944 185.787L663.417 226.853C665.684 233.355 668.575 241.168 672.089 250.294C673.449 253.374 674.753 256.511 676 259.705C677.36 262.899 678.777 266.207 680.251 269.629V271.34H627.029L623.288 249.438L623.798 248.412L626.349 248.754C628.503 248.868 630.713 249.039 632.98 249.267C635.248 249.381 637.401 249.438 639.442 249.438L634.171 234.381H594.552C594.439 234.838 594.268 235.408 594.042 236.092C593.815 236.663 593.588 237.233 593.362 237.803C592.115 241.111 590.811 244.99 589.451 249.438C591.378 249.438 593.418 249.381 595.572 249.267C597.839 249.039 600.05 248.868 602.204 248.754C602.657 248.64 603.11 248.583 603.564 248.583C604.131 248.583 604.641 248.526 605.094 248.412L605.774 249.438L602.204 271.34H552.212V269.629ZM628.559 214.191L624.478 203.24C624.365 202.898 624.252 202.556 624.138 202.213C624.025 201.871 623.912 201.586 623.798 201.358C621.758 195.312 619.888 190.236 618.187 186.13C616.487 181.909 614.786 178.601 613.086 176.206L601.013 214.191H628.559Z" fill="#F0E6D2"/>
<path d="M463.61 269.629C464.177 261.644 464.461 252.518 464.461 242.252V173.468C462.987 173.468 460.55 173.867 457.149 174.666C453.748 175.35 450.744 176.035 448.137 176.719L447.457 175.692L451.368 151.567H504.249C515.925 151.567 525.731 153.049 533.666 156.015C541.601 158.981 547.553 163.259 551.52 168.848C555.488 174.438 557.471 181.282 557.471 189.381C557.471 197.366 555.488 204.21 551.52 209.913C547.553 215.503 541.601 219.78 533.666 222.746C525.731 225.712 515.925 227.195 504.249 227.195H494.557V249.439C496.484 249.439 499.828 249.039 504.59 248.241C509.464 247.442 513.148 246.758 515.642 246.188L516.322 247.214L512.411 271.34H463.61V269.629ZM507.65 206.149C513.885 206.149 518.759 204.78 522.274 202.042C525.788 199.191 527.545 195.426 527.545 190.75C527.545 186.073 525.788 182.365 522.274 179.628C518.759 176.776 513.885 175.35 507.65 175.35H494.557V206.149H507.65Z" fill="#F0E6D2"/>
<path d="M986.91 127.882L990.18 122.185H952.304V121.13C952.655 116.206 952.831 110.579 952.831 104.249V61.8351C951.917 61.8351 950.404 62.0813 948.294 62.5737C946.184 62.9957 944.32 63.4177 942.703 63.8397L942.281 63.2067L944.707 48.3304H985.116L982.162 42.633L982.689 42H998.199L1006.01 71.9637L996.3 75.3399L995.878 74.6014C993.838 71.1548 991.763 68.5172 989.653 66.6884C987.613 64.7893 985.221 63.4177 982.478 62.5737C979.735 61.7296 976.359 61.3076 972.35 61.3076H970.767V77.9776H977.836C977.977 77.9776 978.047 77.9072 978.047 77.7665V74.0738H989.336L986.804 98.5512H978.047V92.7484C978.047 92.6077 977.977 92.5374 977.836 92.5374H970.767V108.996H974.776C979.911 108.996 983.991 108.539 987.015 107.625C990.11 106.64 992.607 105.198 994.506 103.299C996.475 101.4 998.621 98.5512 1000.94 94.753L1001.26 94.331L1001.79 93.2759L1011.49 96.6521L1002.95 128.515H987.543L986.91 127.882Z" fill="#F0E6D2"/>
<path d="M876.884 121.129C877.235 116.276 877.411 110.684 877.411 104.354V61.8351C876.497 61.8351 874.985 62.0813 872.875 62.5736C870.764 62.9957 868.901 63.4177 867.283 63.8397L866.861 63.2067L869.287 48.3303H904.421C910.54 48.3303 915.851 49.1392 920.352 50.757C924.854 52.3747 928.3 54.6959 930.692 57.7204C933.154 60.6745 934.385 64.1914 934.385 68.271C934.385 71.7175 933.365 74.8827 931.325 77.7665C929.285 80.6503 926.436 82.9363 922.779 84.6244V85.1519C927.351 86.2773 930.938 88.3523 933.541 91.3768C936.143 94.4013 937.444 98.1643 937.444 102.666C937.444 108.715 934.912 113.498 929.848 117.015C924.854 120.461 917.996 122.185 909.274 122.185H876.884V121.129ZM907.586 108.047C910.681 108.047 913.178 107.273 915.077 105.726C916.976 104.178 917.926 102.174 917.926 99.7118C917.926 98.2347 917.468 96.8983 916.554 95.7025C915.71 94.4365 914.479 93.4517 912.861 92.7484C911.314 92.045 909.555 91.6933 907.586 91.6933H895.347V108.047H907.586ZM905.37 78.6106C907.41 78.6106 909.204 78.294 910.751 77.661C912.299 76.9576 913.494 75.9729 914.338 74.7068C915.182 73.4408 915.605 71.9988 915.605 70.3811C915.605 68.8337 915.182 67.4621 914.338 66.2663C913.494 65.0706 912.299 64.1562 910.751 63.5232C909.204 62.8198 907.41 62.4681 905.37 62.4681H895.347V78.6106H905.37Z" fill="#F0E6D2"/>
<path d="M822.809 123.767C815.353 123.767 808.706 122.149 802.868 118.914C797.03 115.608 792.494 111.036 789.258 105.198C786.023 99.36 784.405 92.7131 784.405 85.2574C784.405 77.8016 786.023 71.1547 789.258 65.3167C792.494 59.4787 797.03 54.942 802.868 51.7065C808.706 48.4006 815.353 46.7477 822.809 46.7477C830.265 46.7477 836.912 48.4006 842.75 51.7065C848.588 54.942 853.124 59.4787 856.36 65.3167C859.595 71.1547 861.213 77.8016 861.213 85.2574C861.213 92.7131 859.595 99.36 856.36 105.198C853.124 111.036 848.588 115.608 842.75 118.914C836.912 122.149 830.265 123.767 822.809 123.767ZM822.809 108.363C826.467 108.363 829.702 107.414 832.516 105.515C835.329 103.545 837.509 100.837 839.057 97.3906C840.604 93.8737 841.378 89.8293 841.378 85.2574C841.378 80.6855 840.604 76.6762 839.057 73.2297C837.509 69.7128 835.329 67.0048 832.516 65.1057C829.702 63.1363 826.467 62.1516 822.809 62.1516C819.151 62.1516 815.916 63.1363 813.102 65.1057C810.289 67.0048 808.108 69.7128 806.561 73.2297C805.014 76.6762 804.24 80.6855 804.24 85.2574C804.24 89.8293 805.014 93.8737 806.561 97.3906C808.108 100.837 810.289 103.545 813.102 105.515C815.916 107.414 819.151 108.363 822.809 108.363Z" fill="#F0E6D2"/>
<path d="M693.541 97.9182L705.463 94.331L705.779 95.597C705.779 95.6674 705.779 95.7377 705.779 95.808C705.85 95.8784 705.885 95.9839 705.885 96.1245C706.237 97.7423 706.623 99.1491 707.045 100.345C707.467 101.47 707.995 102.385 708.628 103.088C709.261 103.791 710 104.143 710.844 104.143C711.828 104.143 712.778 103.088 713.692 100.978C714.677 98.7974 715.521 94.8233 716.224 89.0556C716.928 83.2176 717.28 75.2344 717.28 65.1058C717.28 64.5431 717.28 64.0156 717.28 63.5232C717.28 62.9605 717.28 62.3978 717.28 61.8351C716.365 61.8351 714.853 62.0813 712.743 62.5736C710.633 62.9957 708.769 63.4177 707.151 63.8397L706.729 63.2067L709.156 48.3303H768.766V49.3854C768.696 51.0735 768.591 53.9573 768.45 58.0369C768.239 60.8504 768.133 63.5935 768.133 66.2663V108.68C769.048 108.68 770.56 108.434 772.67 107.941C774.78 107.449 776.644 107.027 778.262 106.675L778.684 107.308L776.257 122.185H748.615V121.129C749.037 115.151 749.248 109.524 749.248 104.249V64.5783H734.688C734.618 65.4926 734.547 66.407 734.477 67.3214C734.407 68.2358 734.301 69.1853 734.16 70.1701C733.316 79.3843 732.367 87.3676 731.312 94.1199C730.257 100.802 728.569 106.886 726.248 112.372C723.997 117.788 720.972 121.129 717.174 122.396C717.033 122.466 716.857 122.501 716.646 122.501C716.435 122.501 716.26 122.536 716.119 122.607C715.978 122.607 715.838 122.607 715.697 122.607C715.556 122.677 715.416 122.712 715.275 122.712L716.963 126.51L716.33 127.671H699.027L693.541 97.9182Z" fill="#F0E6D2"/>
<path d="M661.648 121.129C661.999 115.784 662.175 110.157 662.175 104.249V61.8351C661.261 61.8351 659.748 62.0813 657.638 62.5736C655.528 62.9957 653.664 63.4177 652.047 63.8397L651.625 63.2067L654.051 48.3303H681.799V49.3854C681.377 55.153 681.166 60.78 681.166 66.2663V108.68C682.081 108.68 683.593 108.434 685.703 107.941C687.813 107.449 689.677 107.027 691.295 106.675L691.717 107.308L689.29 122.185H661.648V121.129Z" fill="#F0E6D2"/>
<path d="M649.059 107.308L646.632 122.185H618.884V121.129C619.306 116.206 619.517 110.579 619.517 104.249V93.3814H594.618V104.249C594.618 110.227 594.829 115.854 595.251 121.129V122.185H575.099V121.129C575.451 116.206 575.627 110.579 575.627 104.249V61.8351C574.712 61.8351 573.2 62.0813 571.09 62.5736C568.98 62.9957 567.116 63.4177 565.498 63.8397L565.076 63.2067L567.503 48.3303H595.251V49.3854C594.829 54.6607 594.618 60.2877 594.618 66.2663V77.1335H619.517V66.2663C619.517 59.936 619.306 54.309 618.884 49.3854V48.3303H639.036V49.3854C638.684 54.6607 638.508 60.2877 638.508 66.2663V108.68C639.423 108.68 640.935 108.434 643.045 107.941C645.155 107.449 647.019 107.027 648.637 106.675L649.059 107.308Z" fill="#F0E6D2"/>
<path d="M532.444 121.129C532.795 115.784 532.971 110.157 532.971 104.249V61.8351C532.057 61.8351 530.544 62.0813 528.434 62.5736C526.324 62.9957 524.46 63.4177 522.843 63.8397L522.421 63.2067L524.847 48.3303H552.595V49.3854C552.173 55.153 551.962 60.78 551.962 66.2663V108.68C552.877 108.68 554.389 108.434 556.499 107.941C558.609 107.449 560.473 107.027 562.091 106.675L562.513 107.308L560.086 122.185H532.444V121.129Z" fill="#F0E6D2"/>
<path d="M457.023 121.129C457.375 116.276 457.551 110.684 457.551 104.354V61.8351C456.636 61.8351 455.124 62.0813 453.014 62.5736C450.904 62.9957 449.04 63.4177 447.422 63.8397L447 63.2067L449.427 48.3303H484.56C490.679 48.3303 495.99 49.1392 500.492 50.757C504.993 52.3747 508.44 54.6959 510.831 57.7204C513.293 60.6745 514.524 64.1914 514.524 68.271C514.524 71.7175 513.504 74.8827 511.464 77.7665C509.424 80.6503 506.576 82.9363 502.918 84.6244V85.1519C507.49 86.2773 511.077 88.3523 513.68 91.3768C516.282 94.4013 517.584 98.1643 517.584 102.666C517.584 108.715 515.051 113.498 509.987 117.015C504.993 120.461 498.135 122.185 489.413 122.185H457.023V121.129ZM487.725 108.047C490.82 108.047 493.317 107.273 495.216 105.726C497.115 104.178 498.065 102.174 498.065 99.7118C498.065 98.2347 497.608 96.8983 496.693 95.7025C495.849 94.4365 494.618 93.4517 493.001 92.7484C491.453 92.045 489.695 91.6933 487.725 91.6933H475.487V108.047H487.725ZM485.51 78.6106C487.549 78.6106 489.343 78.294 490.891 77.661C492.438 76.9576 493.634 75.9729 494.478 74.7068C495.322 73.4408 495.744 71.9988 495.744 70.3811C495.744 68.8337 495.322 67.4621 494.478 66.2663C493.634 65.0706 492.438 64.1562 490.891 63.5232C489.343 62.8198 487.549 62.4681 485.51 62.4681H475.487V78.6106H485.51Z" fill="#F0E6D2"/>
</g>
<g filter="url(#filter1_ii_0_1)">
<path d="M44.8661 103.165C53.0779 83.1921 46.0227 16.9819 89.4274 3.47079C132.832 -10.0401 149.825 34.775 175.064 35.1925C200.302 35.61 233.719 2.88336 254.835 10.5203C275.95 18.1573 260.7 49.878 270.1 56.1701C279.502 62.4622 339.298 54.5775 348.682 97.461C358.067 140.343 314.662 139.756 302.93 162.078C291.2 184.401 317.008 228.458 291.2 246.081C265.393 263.703 240.186 261.771 216.121 273.691C192.057 285.61 168.611 325.385 124.034 315.986C79.4561 306.587 88.857 252.961 74.177 240.794C59.4972 228.628 7.31045 235.508 0.858347 184.401C-5.59361 133.294 36.6542 123.137 44.8661 103.165Z" fill="#1C1C1C"/>
</g>
<g filter="url(#filter2_dii_0_1)">
<path d="M167.868 226.368C207.784 226.368 240.143 194.018 240.143 154.113C240.143 114.208 207.784 81.8583 167.868 81.8583C127.952 81.8583 95.5933 114.208 95.5933 154.113C95.5933 194.018 127.952 226.368 167.868 226.368Z" fill="#FF5647"/>
</g>
<g filter="url(#filter3_ii_0_1)">
<path d="M163.955 166.2C170.635 168.354 177.797 164.688 179.952 158.01C182.107 151.332 178.439 144.172 171.76 142.017C165.08 139.863 157.918 143.529 155.763 150.207C153.608 156.885 157.276 164.045 163.955 166.2Z" fill="#070707"/>
</g>
<g filter="url(#filter4_ii_0_1)">
<path d="M164.836 163.822C170.154 165.537 175.857 162.618 177.573 157.301C179.288 151.984 176.368 146.283 171.05 144.568C165.732 142.852 160.029 145.772 158.313 151.089C156.597 156.406 159.518 162.106 164.836 163.822Z" fill="#070707"/>
</g>
<defs>
<filter id="filter0_d_0_1" x="444" y="39" width="572.569" height="263.861" filterUnits="userSpaceOnUse" color-interpolation-filters="sRGB">
<feFlood flood-opacity="0" result="BackgroundImageFix"/>
<feColorMatrix in="SourceAlpha" type="matrix" values="0 0 0 0 0 0 0 0 0 0 0 0 0 0 0 0 0 0 127 0" result="hardAlpha"/>
<feOffset dx="1" dy="1"/>
<feGaussianBlur stdDeviation="2"/>
<feComposite in2="hardAlpha" operator="out"/>
<feColorMatrix type="matrix" values="0 0 0 0 0 0 0 0 0 0 0 0 0 0 0 0 0 0 0.5 0"/>
<feBlend mode="normal" in2="BackgroundImageFix" result="effect1_dropShadow_0_1"/>
<feBlend mode="normal" in="SourceGraphic" in2="effect1_dropShadow_0_1" result="shape"/>
</filter>
<filter id="filter1_ii_0_1" x="0.190918" y="-10.8388" width="349.809" height="340.02" filterUnits="userSpaceOnUse" color-interpolation-filters="sRGB">
<feFlood flood-opacity="0" result="BackgroundImageFix"/>
<feBlend mode="normal" in="SourceGraphic" in2="BackgroundImageFix" result="shape"/>
<feColorMatrix in="SourceAlpha" type="matrix" values="0 0 0 0 0 0 0 0 0 0 0 0 0 0 0 0 0 0 127 0" result="hardAlpha"/>
<feOffset dy="11.7717"/>
<feGaussianBlur stdDeviation="5.88585"/>
<feComposite in2="hardAlpha" operator="arithmetic" k2="-1" k3="1"/>
<feColorMatrix type="matrix" values="0 0 0 0 0.941176 0 0 0 0 0.901961 0 0 0 0 0.823529 0 0 0 1 0"/>
<feBlend mode="normal" in2="shape" result="effect1_innerShadow_0_1"/>
<feColorMatrix in="SourceAlpha" type="matrix" values="0 0 0 0 0 0 0 0 0 0 0 0 0 0 0 0 0 0 127 0" result="hardAlpha"/>
<feOffset dy="-11.7717"/>
<feGaussianBlur stdDeviation="5.88585"/>
<feComposite in2="hardAlpha" operator="arithmetic" k2="-1" k3="1"/>
<feColorMatrix type="matrix" values="0 0 0 0 0.941176 0 0 0 0 0.901961 0 0 0 0 0.823529 0 0 0 1 0"/>
<feBlend mode="normal" in2="effect1_innerShadow_0_1" result="effect2_innerShadow_0_1"/>
</filter>
<filter id="filter2_dii_0_1" x="68.9267" y="68.525" width="197.882" height="197.843" filterUnits="userSpaceOnUse" color-interpolation-filters="sRGB">
<feFlood flood-opacity="0" result="BackgroundImageFix"/>
<feColorMatrix in="SourceAlpha" type="matrix" values="0 0 0 0 0 0 0 0 0 0 0 0 0 0 0 0 0 0 127 0" result="hardAlpha"/>
<feOffset dy="13.3333"/>
<feGaussianBlur stdDeviation="13.3333"/>
<feColorMatrix type="matrix" values="0 0 0 0 0.2 0 0 0 0 0.173499 0 0 0 0 0.0553196 0 0 0 0.24 0"/>
<feBlend mode="normal" in2="BackgroundImageFix" result="effect1_dropShadow_0_1"/>
<feBlend mode="normal" in="SourceGraphic" in2="effect1_dropShadow_0_1" result="shape"/>
<feColorMatrix in="SourceAlpha" type="matrix" values="0 0 0 0 0 0 0 0 0 0 0 0 0 0 0 0 0 0 127 0" result="hardAlpha"/>
<feOffset dy="4.14815"/>
<feGaussianBlur stdDeviation="2.07407"/>
<feComposite in2="hardAlpha" operator="arithmetic" k2="-1" k3="1"/>
<feColorMatrix type="matrix" values="0 0 0 0 1 0 0 0 0 0.919544 0 0 0 0 0.293194 0 0 0 1 0"/>
<feBlend mode="normal" in2="shape" result="effect2_innerShadow_0_1"/>
<feColorMatrix in="SourceAlpha" type="matrix" values="0 0 0 0 0 0 0 0 0 0 0 0 0 0 0 0 0 0 127 0" result="hardAlpha"/>
<feOffset dy="-4.14815"/>
<feGaussianBlur stdDeviation="2.07407"/>
<feComposite in2="hardAlpha" operator="arithmetic" k2="-1" k3="1"/>
<feColorMatrix type="matrix" values="0 0 0 0 0.925 0 0 0 0 0.802432 0 0 0 0 0.255853 0 0 0 1 0"/>
<feBlend mode="normal" in2="effect2_innerShadow_0_1" result="effect3_innerShadow_0_1"/>
</filter>
<filter id="filter3_ii_0_1" x="155.145" y="140.902" width="25.4242" height="26.4128" filterUnits="userSpaceOnUse" color-interpolation-filters="sRGB">
<feFlood flood-opacity="0" result="BackgroundImageFix"/>
<feBlend mode="normal" in="SourceGraphic" in2="BackgroundImageFix" result="shape"/>
<feColorMatrix in="SourceAlpha" type="matrix" values="0 0 0 0 0 0 0 0 0 0 0 0 0 0 0 0 0 0 127 0" result="hardAlpha"/>
<feOffset dy="0.497778"/>
<feGaussianBlur stdDeviation="0.248889"/>
<feComposite in2="hardAlpha" operator="arithmetic" k2="-1" k3="1"/>
<feColorMatrix type="matrix" values="0 0 0 0 1 0 0 0 0 1 0 0 0 0 1 0 0 0 1 0"/>
<feBlend mode="normal" in2="shape" result="effect1_innerShadow_0_1"/>
<feColorMatrix in="SourceAlpha" type="matrix" values="0 0 0 0 0 0 0 0 0 0 0 0 0 0 0 0 0 0 127 0" result="hardAlpha"/>
<feOffset dy="-0.497778"/>
<feGaussianBlur stdDeviation="0.248889"/>
<feComposite in2="hardAlpha" operator="arithmetic" k2="-1" k3="1"/>
<feColorMatrix type="matrix" values="0 0 0 0 0.925 0 0 0 0 0.925 0 0 0 0 0.925 0 0 0 1 0"/>
<feBlend mode="normal" in2="effect1_innerShadow_0_1" result="effect2_innerShadow_0_1"/>
</filter>
<filter id="filter4_ii_0_1" x="157.822" y="143.579" width="20.2423" height="21.2324" filterUnits="userSpaceOnUse" color-interpolation-filters="sRGB">
<feFlood flood-opacity="0" result="BackgroundImageFix"/>
<feBlend mode="normal" in="SourceGraphic" in2="BackgroundImageFix" result="shape"/>
<feColorMatrix in="SourceAlpha" type="matrix" values="0 0 0 0 0 0 0 0 0 0 0 0 0 0 0 0 0 0 127 0" result="hardAlpha"/>
<feOffset dy="0.497778"/>
<feGaussianBlur stdDeviation="0.248889"/>
<feComposite in2="hardAlpha" operator="arithmetic" k2="-1" k3="1"/>
<feColorMatrix type="matrix" values="0 0 0 0 1 0 0 0 0 1 0 0 0 0 1 0 0 0 1 0"/>
<feBlend mode="normal" in2="shape" result="effect1_innerShadow_0_1"/>
<feColorMatrix in="SourceAlpha" type="matrix" values="0 0 0 0 0 0 0 0 0 0 0 0 0 0 0 0 0 0 127 0" result="hardAlpha"/>
<feOffset dy="-0.497778"/>
<feGaussianBlur stdDeviation="0.248889"/>
<feComposite in2="hardAlpha" operator="arithmetic" k2="-1" k3="1"/>
<feColorMatrix type="matrix" values="0 0 0 0 0.925 0 0 0 0 0.925 0 0 0 0 0.925 0 0 0 1 0"/>
<feBlend mode="normal" in2="effect1_innerShadow_0_1" result="effect2_innerShadow_0_1"/>
</filter>
</defs>
</svg>
