<svg width="547" height="496" viewBox="0 0 547 496" fill="none" xmlns="http://www.w3.org/2000/svg">
<mask id="path-1-outside-1_398_5" maskUnits="userSpaceOnUse" x="-0.805359" y="-0.345215" width="548" height="497" fill="black">
<rect fill="white" x="-0.805359" y="-0.345215" width="548" height="497"/>
<path d="M72.5461 161.066C85.11 130.509 74.3158 29.2092 140.723 8.53773C207.131 -12.1335 233.13 56.4322 271.744 57.0709C310.358 57.7097 361.485 7.63898 393.791 19.3232C426.097 31.0076 402.765 79.5393 417.147 89.166C431.531 98.7927 523.017 86.7293 537.374 152.34C551.734 217.947 485.325 217.05 467.376 251.202C449.429 285.355 488.914 352.76 449.429 379.722C409.944 406.685 371.379 403.729 334.561 421.965C297.743 440.201 261.872 501.055 193.67 486.675C125.468 472.295 139.851 390.249 117.391 371.635C94.9312 353.021 15.0873 363.547 5.21579 285.355C-4.65549 207.162 59.9823 191.624 72.5461 161.066Z"/>
</mask>
<path d="M72.5461 161.066C85.11 130.509 74.3158 29.2092 140.723 8.53773C207.131 -12.1335 233.13 56.4322 271.744 57.0709C310.358 57.7097 361.485 7.63898 393.791 19.3232C426.097 31.0076 402.765 79.5393 417.147 89.166C431.531 98.7927 523.017 86.7293 537.374 152.34C551.734 217.947 485.325 217.05 467.376 251.202C449.429 285.355 488.914 352.76 449.429 379.722C409.944 406.685 371.379 403.729 334.561 421.965C297.743 440.201 261.872 501.055 193.67 486.675C125.468 472.295 139.851 390.249 117.391 371.635C94.9312 353.021 15.0873 363.547 5.21579 285.355C-4.65549 207.162 59.9823 191.624 72.5461 161.066Z" fill="#1C1C1C"/>
<path d="M69.9449 159.997C71.679 160.71 73.4132 161.423 75.1473 162.136C84.0967 134.206 83.464 106.217 90.6147 79.4992C97.4025 50.3794 113.22 20.7591 142.085 12.9104C164.424 5.54185 188.17 10.5459 207.152 24.4135C226.897 36.7124 241.773 59.9903 271.649 62.7973C319.523 60.7228 355.019 17.9979 391.577 25.4444C401.777 28.7922 405.262 38.9525 405.434 51.4088C405.61 57.5691 405.15 63.9879 405.075 70.8944C405.621 77.4862 403.223 86.3971 413.324 94.878C442.667 104.639 463.739 101.439 486.327 109.741C508.233 116.605 526.11 132.013 530.215 153.906C535.112 174.055 530.231 193.059 513.576 204.952C498.129 217.78 474.356 224.218 460.742 247.716C455.203 258.446 454.706 269.689 454.967 279.919C456.179 315.397 470.993 355.962 445.242 373.591C413.416 397.045 370.84 396.508 331.388 415.558C283.82 445.628 248.483 493.835 195.007 480.332C172.401 476.373 155.279 459.763 147.268 437.827C137.303 416.257 140.831 390.955 120.949 367.342C95.2238 351.829 69.9577 353.58 48.1984 341.572C26.1512 331.169 12.2633 309.305 9.50873 284.813C6.55985 264.062 9.11195 242.662 19.9673 224.876C33.0444 200.784 60.846 189.211 75.1473 162.136C73.4132 161.423 71.679 160.71 69.9449 159.997C57.6771 182.951 28.4725 195.576 13.6466 221.016C1.38767 240.145 -1.84387 263.86 0.922837 285.897C3.11225 312.139 19.1556 338.668 43.5935 350.427C66.7157 363.341 96.0833 364.318 113.833 375.928C126.46 390.165 126.44 419.189 135.961 442.221C143.974 466.346 166.018 488.548 192.332 493.018C253.377 509.247 297.419 452.601 337.734 428.372C372.19 411.344 417.558 411.737 453.616 385.854C472.204 374.044 476.238 349.985 475.104 332.207C474.315 313.649 470.534 296.168 469.96 279.441C469.663 270.324 470.461 261.409 474.01 254.688C482.404 238.766 504.461 230.987 522.782 216.642C543.155 203.19 551.041 172.871 544.533 150.773C532.023 89.9122 457.281 90.698 420.97 83.4537C412.513 74.998 432.65 27.6836 396.005 13.202C342.829 5.73146 312.397 50.7062 271.839 51.3446C251.019 50.5829 233.768 29.1266 212.957 15.8112C192.548 1.03935 163.53 -4.60588 139.362 4.16506C106.234 13.8994 89.6704 47.9175 83.4094 77.7855C76.7122 105.268 77.5502 134.554 69.9449 159.997ZM75.1473 162.136L69.9449 159.997L75.1473 162.136Z" fill="white" mask="url(#path-1-outside-1_398_5)"/>
<mask id="path-3-outside-2_398_5" maskUnits="userSpaceOnUse" x="142.157" y="121.468" width="233" height="235" fill="black">
<rect fill="white" x="142.157" y="121.468" width="233" height="235"/>
<path d="M260.735 349.563C321.805 349.563 371.313 300.069 371.313 239.015C371.313 177.962 321.805 128.468 260.735 128.468C199.665 128.468 150.157 177.962 150.157 239.015C150.157 300.069 199.665 349.563 260.735 349.563Z"/>
</mask>
<path d="M260.735 349.563C321.805 349.563 371.313 300.069 371.313 239.015C371.313 177.962 321.805 128.468 260.735 128.468C199.665 128.468 150.157 177.962 150.157 239.015C150.157 300.069 199.665 349.563 260.735 349.563Z" fill="#EF5F34"/>
<path d="M374.125 239.015C372.25 239.015 370.375 239.015 368.5 239.015C368.191 250.322 366.133 261.494 362.405 272.048C347.847 314.722 304.693 344.514 260.735 343.235C205.233 343.705 156.357 293.83 157.657 239.015C156.357 184.201 205.233 134.326 260.735 134.796C304.693 133.517 347.847 163.308 362.405 205.982C366.133 216.537 368.191 227.708 368.5 239.015C370.375 239.015 372.25 239.015 374.125 239.015C374.442 227.131 372.884 215.167 369.449 203.694C356.233 157.334 310.144 122.04 260.735 122.14C198.458 119.744 141.095 176.038 142.657 239.015C142.657 239.015 142.657 239.015 142.657 239.015C141.095 301.992 198.458 358.286 260.735 355.891C310.144 355.991 356.233 320.696 369.449 274.337C372.884 262.864 374.442 250.899 374.125 239.015ZM368.5 239.015H374.125H368.5Z" fill="#FFE77A" mask="url(#path-3-outside-2_398_5)"/>
<mask id="path-5-outside-3_398_5" maskUnits="userSpaceOnUse" x="232.43" y="210.764" width="54.7446" height="56.025" fill="black">
<rect fill="white" x="232.43" y="210.764" width="54.7446" height="56.025"/>
<path d="M254.749 257.508C264.968 260.804 275.926 255.194 279.223 244.977C282.521 234.76 276.909 223.805 266.689 220.509C256.469 217.212 245.512 222.823 242.214 233.04C238.917 243.256 244.529 254.211 254.749 257.508Z"/>
</mask>
<path d="M254.749 257.508C264.968 260.804 275.926 255.194 279.223 244.977C282.521 234.76 276.909 223.805 266.689 220.509C256.469 217.212 245.512 222.823 242.214 233.04C238.917 243.256 244.529 254.211 254.749 257.508Z" fill="#202020"/>
<path d="M280.116 245.264C279.521 245.073 278.926 244.881 278.331 244.689C277.636 246.506 276.67 248.193 275.476 249.682C270.724 255.729 262.247 258.044 255.397 255.5C246.637 252.602 241.633 242.304 244.594 233.807C244.594 233.807 244.594 233.807 244.594 233.807C247.159 225.182 257.24 219.75 266.041 222.516C273.087 224.455 278.612 231.286 278.934 238.969C279.031 240.875 278.829 242.808 278.331 244.689C278.926 244.881 279.521 245.073 280.116 245.264C280.871 243.265 281.314 241.131 281.402 238.964C281.884 230.249 275.991 221.372 267.337 218.501C256.583 214.431 243.152 221.031 239.835 232.272C239.835 232.272 239.835 232.272 239.835 232.272C235.956 243.331 242.995 256.535 254.101 259.515C262.801 262.242 272.773 258.482 277.477 251.129C278.671 249.318 279.56 247.329 280.116 245.264ZM278.331 244.689L280.116 245.264L278.331 244.689Z" fill="white" mask="url(#path-5-outside-3_398_5)"/>
</svg>
