<svg width="507" height="294" viewBox="0 0 507 294" fill="none" xmlns="http://www.w3.org/2000/svg">
<g filter="url(#filter0_d_63_21)">
<path fill-rule="evenodd" clip-rule="evenodd" d="M276.99 142.978C284.8 150.789 284.8 163.452 276.99 171.262L200.934 247.318C193.124 255.129 180.46 255.129 172.65 247.318L121.282 195.951C113.472 188.14 113.472 175.477 121.282 167.666L152.429 136.52C160.24 128.709 172.903 128.709 180.713 136.52L186.146 141.952C193.483 149.29 193.483 161.186 186.146 168.523L179.826 174.843C175.979 178.69 175.979 184.927 179.826 188.774V188.774C183.673 192.621 189.911 192.621 193.758 188.774L211.269 171.262C219.08 163.452 219.08 150.789 211.269 142.978L180.037 111.746C172.226 103.935 159.563 103.935 151.752 111.746L79.4018 184.096C71.5913 191.907 58.928 191.907 51.1175 184.096L46.5414 179.52C38.7309 171.71 38.7309 159.047 46.5414 151.236L151.752 46.0251C159.563 38.2147 172.226 38.2147 180.037 46.0251L276.99 142.978Z" fill="#afafaf"/>
<path fill-rule="evenodd" clip-rule="evenodd" d="M460.858 142.978C468.668 150.789 468.668 163.452 460.858 171.262L384.802 247.318C376.992 255.129 364.329 255.129 356.518 247.318L305.15 195.951C297.34 188.14 297.34 175.477 305.15 167.666L336.297 136.52C344.108 128.709 356.771 128.709 364.581 136.52L370.014 141.952C377.352 149.29 377.352 161.186 370.014 168.523L363.695 174.843C359.848 178.69 359.848 184.927 363.695 188.774V188.774C367.542 192.621 373.779 192.621 377.626 188.774L395.137 171.262C402.948 163.452 402.948 150.789 395.137 142.978L363.905 111.746C356.094 103.935 343.431 103.935 335.621 111.746L316.437 130.93C308.626 138.74 295.963 138.74 288.152 130.93L283.576 126.354C275.766 118.543 275.766 105.88 283.576 98.0694L335.621 46.0251C343.431 38.2146 356.094 38.2146 363.905 46.0251L460.858 142.978Z" fill="#afafaf"/>
<path opacity="0.4" fill-rule="evenodd" clip-rule="evenodd" d="M62.7024 46.8097C70.5129 38.9992 83.1762 38.9992 90.9867 46.8097L95.6163 51.4393C103.427 59.2498 103.427 71.9131 95.6164 79.7236L90.9877 84.3523C83.1772 92.1628 70.5139 92.1628 62.7034 84.3523L58.0738 79.7227C50.2633 71.9122 50.2633 59.2489 58.0738 51.4384L62.7024 46.8097Z" fill="#afafaf"/>
<path opacity="0.4" fill-rule="evenodd" clip-rule="evenodd" d="M425.369 46.8097C433.179 38.9992 445.842 38.9992 453.653 46.8097L458.283 51.4393C466.093 59.2498 466.093 71.9131 458.283 79.7236L453.654 84.3523C445.843 92.1628 433.18 92.1628 425.37 84.3523L420.74 79.7227C412.93 71.9122 412.93 59.2489 420.74 51.4384L425.369 46.8097Z" fill="#afafaf"/>
<path opacity="0.4" fill-rule="evenodd" clip-rule="evenodd" d="M246.193 46.8097C254.003 38.9992 266.666 38.9992 274.477 46.8097L279.106 51.4393C286.917 59.2498 286.917 71.9131 279.106 79.7236L274.478 84.3523C266.667 92.1628 254.004 92.1628 246.194 84.3523L241.564 79.7227C233.753 71.9122 233.753 59.2489 241.564 51.4384L246.193 46.8097Z" fill="#afafaf"/>
</g>
<defs>
<filter id="filter0_d_63_21" x="0.683594" y="0.167267" width="506.032" height="293.009" filterUnits="userSpaceOnUse" color-interpolation-filters="sRGB">
<feFlood flood-opacity="0" result="BackgroundImageFix"/>
<feColorMatrix in="SourceAlpha" type="matrix" values="0 0 0 0 0 0 0 0 0 0 0 0 0 0 0 0 0 0 127 0" result="hardAlpha"/>
<feOffset/>
<feGaussianBlur stdDeviation="20"/>
<feComposite in2="hardAlpha" operator="out"/>
<feColorMatrix type="matrix" values="0 0 0 0 0 0 0 0 0 0 0 0 0 0 0 0 0 0 0.5 0"/>
<feBlend mode="normal" in2="BackgroundImageFix" result="effect1_dropShadow_63_21"/>
<feBlend mode="normal" in="SourceGraphic" in2="effect1_dropShadow_63_21" result="shape"/>
</filter>
</defs>
</svg>
